<?xml version="1.0" encoding="utf-8" ?><svg xmlns="http://www.w3.org/2000/svg" xmlns:xlink="http://www.w3.org/1999/xlink" width="32" height="32" viewBox="0 0 32 32"><path fill="white" transform="scale(0.03125 0.03125)" d="M0 0L1024 0L1024 1024L0 1024L0 0Z"/><path transform="scale(0.03125 0.03125)" d="M511.839 56.7252C562.105 55.4053 620.136 79.8697 641.177 128.835C646.623 141.508 648.425 160.533 644.002 173.781C636.565 196.057 626.813 216.345 628.744 240.656C629.492 251.396 632.483 261.859 637.524 271.372C658.021 309.453 705.633 309.824 737.069 338.064C775.24 372.355 770.659 424.018 730.565 454.589C719.734 462.846 705.644 469.487 693.728 475.533L656.799 494.227C642.311 501.564 628.618 508.483 618.051 520.197C598.588 541.773 603.681 565.294 617.251 588.279C620.528 595.421 622.987 604.261 623.297 612.032C625.819 675.29 569.122 710.876 513.123 714.379C475.597 715.636 438.017 703.115 409.529 678.021C384.846 656.278 370.561 624.736 380.129 591.942C382.195 584.825 385.991 578.13 388.775 571.315C404.379 533.11 395.366 483.245 354.623 465.28C345.27 461.155 336.181 457.139 326.604 453.236C293.524 439.756 262.33 414.607 260.776 376.272C260.377 364.11 263.288 352.069 269.199 341.433C282.822 316.427 302.036 306.85 326.087 294.475C339.84 287.399 353.382 280.562 367.326 273.836C381.23 267.128 396.08 259.286 406.467 247.737C420.505 232.129 422.252 214.182 414.247 195.16C411.504 188.642 407.392 181.558 405.099 175.155C402.635 168.353 401.239 161.21 400.961 153.981C399.952 132.159 409.816 109.209 424.757 93.4996C448.097 68.9605 478.58 58.0338 511.839 56.7252Z"/><path fill="white" transform="scale(0.03125 0.03125)" d="M508.961 161.08C513.737 160.677 517.7 161.102 520.477 165.587C525.399 173.535 530.199 181.576 535.037 189.578L569.692 247.65C582.057 268.109 594.341 289.343 606.764 309.59C614.658 322.38 622.442 335.239 630.116 348.163C634.594 355.607 639.297 363.251 643.542 370.761C645.007 374.192 647.95 377.562 647.031 381.412C646.102 385.972 640.559 388.761 636.294 386.969C628.641 383.753 621.271 378.568 614.051 374.389L554.202 339.682L531.474 326.248C526.621 323.388 520.153 318.994 514.836 317.53C512.426 317.337 508.706 317.219 506.555 318.215C498.281 322.048 489.835 327.654 481.911 332.21C456.833 346.631 432.139 361.741 407.001 376.005C401.136 379.018 395.995 383.039 390.085 385.98C381.978 389.319 375.035 386.804 378.187 376.84C379.57 372.921 381.785 369.068 383.946 365.522C396.431 345.036 408.747 324.38 421.064 303.802L474.345 214.359C483.324 199.209 492.311 183.901 501.368 168.795C503.496 165.247 505.317 163.046 508.961 161.08Z"/><path fill="white" transform="scale(0.03125 0.03125)" d="M382.317 401.555C384.033 401.539 386.354 401.52 387.891 402.284C396.797 406.714 405.679 412.556 414.166 417.709L470.425 451.895C481.577 458.796 493.352 466.38 504.834 472.649C508.201 474.487 511.761 475.283 515.434 474.023C524.92 470.549 533.178 464.469 542.044 459.221C573.679 440.496 604.918 420.777 636.781 402.509C641.055 400.059 649.811 404.936 645.238 411.69C640.732 418.345 635.868 425.319 631.278 432.166L596.288 483.935L541.577 565.701C533.948 577.122 526.578 589.927 517.696 600.218C514.854 603.51 506.049 601.977 503.045 597.702C496.214 587.98 489.688 578.132 483.169 568.196L448.885 516.387L405.974 452.26L387.904 425.3C383.319 418.451 372.752 407.97 382.317 401.555Z"/><path transform="scale(0.03125 0.03125)" d="M742.614 802.227C748.498 802.253 753.942 802.51 759.754 803.593C781.287 807.69 800.36 820.057 812.886 838.044C826.1 857.329 829.22 877.722 824.932 900.376L716.35 900.399C711.648 887.787 711.111 877.586 717.981 865.745C738.075 865.544 758.169 865.454 778.263 865.474C776.551 860.15 773.61 855.303 769.677 851.326C762.798 844.405 754.405 842.127 744.847 841.894C722.193 841.339 704.905 861.33 705.422 883.402C705.732 896.663 710.379 905.982 719.863 915.241C720.459 915.769 721.066 916.283 721.684 916.784C729.585 923.22 739.452 925.699 749.467 924.493C761.041 923.1 767.856 918.588 774.97 909.696C790.794 909.495 806.619 909.435 822.444 909.518C819.031 919.192 813.594 929.693 806.852 937.476C792.612 953.839 772.458 963.878 750.82 965.387C729.496 967 708.426 959.923 692.401 945.763C675.562 931.265 665.305 910.57 663.964 888.389C661.906 856.238 676.973 829.107 704.526 812.697C716.498 805.566 728.829 802.908 742.614 802.227Z"/><path transform="scale(0.03125 0.03125)" d="M579.134 801.701C600.099 799.281 625.317 807.343 640.797 821.569C644.074 824.581 647.083 827.634 650.154 830.844C642.486 838.31 628.311 849.53 619.712 856.946C618.728 855.665 616.895 853.746 615.713 852.591C606.739 843.686 594.513 838.839 581.875 839.175C574.645 839.35 563.254 842.887 564.027 851.991C564.219 854.302 565.488 856.387 567.454 857.618C576.755 863.502 603.188 865.503 615.082 869.785C634.468 876.765 649.935 892.578 651.336 913.987C653.485 946.85 621.575 963.77 592.625 965.521C588.587 965.777 584.536 965.781 580.498 965.533C557.534 964.142 533.111 952.906 517.715 935.551C525.602 927.92 538.427 917.65 547.124 910.292C560.653 922.024 574.843 928.976 593.032 927.613C600.097 927.084 609.699 924.155 608.369 915.273C606.777 904.647 586.436 902.581 578.136 901.035C573.129 900.144 568.162 899.046 563.245 897.745C541.047 891.822 524.981 881.032 522.234 856.474C518.515 823.22 549.419 804.284 579.134 801.701Z"/><path transform="scale(0.03125 0.03125)" d="M259.475 803.704C273.052 802.88 285.708 806.261 296.223 815.135C296.674 831.055 295.373 847.925 296.422 863.915C287.965 853.562 279.446 847.313 265.765 847.646C217.426 848.821 218.228 921.154 266.754 921.182C279.59 921.189 288.014 914.121 296.483 905.045L296.335 935.575L296.07 953C274.089 972.496 239.725 963.895 219.002 946.905C202.172 933.328 191.498 913.561 189.377 892.041C187.197 870.34 193.719 848.66 207.51 831.763C220.984 815.444 238.396 805.657 259.475 803.704Z"/><path transform="scale(0.03125 0.03125)" d="M108.434 803.678C110.178 803.537 111.926 803.45 113.675 803.416C130.031 803.231 145.974 810.479 157.364 821.992C183.435 848.345 180.717 876.646 180.641 910.006L180.678 963.451L137.987 963.345C137.856 944.242 137.839 925.138 137.938 906.035C137.979 897.957 138.5 883.752 137.832 876.154C137.516 872.588 136.702 869.083 135.415 865.742C129.925 851.481 116.652 844.398 101.581 850.259C93.0247 853.587 89.363 861.187 85.9927 869.154C85.8614 850.762 85.8567 832.37 85.9787 813.979C94.0874 807.475 98.1363 805.119 108.434 803.678Z"/><path transform="scale(0.03125 0.03125)" d="M346.84 803.279C363.382 803.456 379.925 803.518 396.468 803.464L433.601 851.363C442.412 862.593 451.668 873.962 460.168 885.377C455.786 891.834 445.247 904.517 440.039 911.187C426.2 928.655 412.5 946.233 398.939 963.919C396.124 964.25 386.182 963.993 382.903 963.975L348.713 963.779C351.219 960.88 353.697 957.547 356.056 954.483C373.958 931.24 392.199 908.096 409.746 884.598C405.121 878.109 398.161 870.083 393.018 863.443C377.426 843.541 362.033 823.486 346.84 803.279Z"/><path transform="scale(0.03125 0.03125)" d="M906.557 804.133C927.484 802.068 949.431 812.327 964.058 826.878C969.951 832.775 974.947 839.505 978.884 846.853C990.896 869.056 988.521 886.314 988.536 910.908L988.545 963.585L969.102 963.637L946.985 963.621L946.929 908.147C946.91 882.554 950.769 854.242 916.242 850.116C902.85 848.515 890.017 849.186 886.712 831.484C883.924 816.55 892.147 806.844 906.557 804.133Z"/><path transform="scale(0.03125 0.03125)" d="M35.0352 738.035L78.0534 738.138C77.9514 773.778 78.0309 809.418 78.2919 845.057C78.3078 864.755 77.514 886.677 78.3123 906.155C73.1457 903.613 69.8603 902.628 64.143 902.512C53.4737 904.281 46.2677 907.758 41.7574 918.315L35.0986 921.063C34.1982 860.47 35.417 798.781 35.0352 738.035Z"/><path transform="scale(0.03125 0.03125)" d="M839.584 802.969C853.697 803.041 867.81 803.205 881.922 803.46C882.09 813.802 878.019 821.592 879.257 831.729C880.591 842.645 887.007 848.394 895.256 854.815C893.183 856.498 891.199 858.286 889.311 860.174C877.662 872.002 880.473 889.396 880.478 904.868L880.515 945.75L880.502 963.514L839.703 963.674L839.584 802.969Z"/><path transform="scale(0.03125 0.03125)" d="M316.821 803.24L343.79 803.052C344.517 824.004 343.721 849.821 343.689 871.076C343.929 902.008 343.876 932.942 343.531 963.873L331.25 963.911C321.647 963.894 312.045 963.778 302.445 963.564L302.531 803.33L316.821 803.24Z"/><path transform="scale(0.03125 0.03125)" d="M476.571 803.19C492.597 803.476 508.626 803.579 524.654 803.499C508.729 822.906 491.548 845.045 476.093 864.964C472.593 869.358 468.719 874.488 464.852 878.473C457.568 868.467 448.636 857.446 440.996 847.534C447.051 838.333 466.661 813.345 474.867 803.637C475.435 803.488 476.003 803.339 476.571 803.19Z"/><path transform="scale(0.03125 0.03125)" d="M466.186 891.833C476.822 906.345 488.252 920.594 499.111 935.055C506.543 944.951 513.936 952.997 521.147 963.647C513.217 963.419 504.723 963.56 496.75 963.559C488.368 963.595 479.987 963.586 471.605 963.531C464.908 955.236 458.312 946.86 451.819 938.405C448.344 933.904 444.024 928.639 441.075 923.867C445.565 916.999 460.522 898.737 466.186 891.833Z"/><path transform="scale(0.03125 0.03125)" d="M62.5683 910.562C65.5519 910.328 68.136 910.518 70.992 911.443C76.1684 913.071 80.4477 916.755 82.8266 921.633C88.5437 933.144 82.3581 944.396 71.3285 949.475C66.894 958.418 63.9524 961.813 54.0259 964.187C50.8381 964.354 48.2546 964.199 45.2326 963.377C28.9424 958.947 25.5453 937.392 39.4324 927.941C41.8495 926.296 44.0494 925.321 46.6573 924.112C49.7589 915.828 54.1328 912.652 62.5683 910.562Z"/></svg>